<svg xmlns="http://www.w3.org/2000/svg" width="32" height="32" fill="none"><path fill="#194185" d="M3.926 3.972h24.288v-.186H3.74V31h.186V3.972Z"/><path fill="#194185" d="M1 1v30h.186V1.186H31V1H1Z"/><path fill="#194185" d="M14.793 14.793h2.6v-.163h-2.786v8.09h.186v-7.927Z"/><path fill="#194185" d="M25.66 25.66V6.525h-.186v18.948H12.053V11.867h-.186v13.792h13.792Z"/><path fill="#84CAFF" d="M9.313 9.313h13.582v13.606h-8.288v-8.288h2.972v5.316h2.368v-7.894h-7.894v13.42h13.42V6.527H6.714v24.288H31V1.186H1.186v29.628H3.74V3.786h24.474V28.26H9.313V9.313Z"/><path fill="#1570EF" d="M20.133 12.053v-.186h-8.08v.186h8.08Z"/><path fill="#1570EF" d="M6.526 31H31v-.186H6.712V6.526h-.186V31Zm-5.34 0H3.74v-.186H1.186V31Z"/><path fill="#1570EF" d="M17.393 20.133h2.74v-8.08h-.186v7.894H17.58V14.63h-.186v5.503Z"/><path fill="#1570EF" d="M22.734 22.72h-8.127v.2h8.288V9.313h-.161V22.72Z"/></svg>